PathFileType	4	(X/Y/Z)	C:\Users\willi\Documents\UniDataLokal\DATA_Hans_PhD\TD06\B\3DGAIT_B_W12\marker_experimental.trc
DataRate	CameraRate	NumFrames	NumMarkers	Units	OrigDataRate	OrigDataStartFrame	OrigNumFrames
100.000000	100.000000	4	86	mm	100.000000	37	99
Frame#	Time	RBAK			C7			CLAV			T10			STRN			RASI			RPSI			LPSI			LASI			LPELV			RPELV			RTHI1			RTHI2			RTHI3			RTHI			RKNE			RPAT			RLKNEL			RLKNEM			RLPAT			RTIB1			RTIB2			RTIB3			RTIB			RANK			RHEEL			RTOE			RM5			LTHI1			LTHI2			LTHI3			LTHI			LKNE			LPAT			LLKNE			LLKNEM			LLPAT			LTIB1			LTIB2			LTIB3			LTIB			LANK			LHEEL			LTOE			LM5			*45			*46			*47			*48			*49			*50			*51			*52			*53			*54			*55			*56			*57			*58			*59			*60			*61			*62			*63			*64			*65			*66			*67			*68			*69			*70			*71			*72			*73			*74			*75			*76			*77			*78			*79			*80			*81			*82			*83			*84			*85			
		X1	Y1	Z1	X2	Y2	Z2	X3	Y3	Z3	X4	Y4	Z4	X5	Y5	Z5	X6	Y6	Z6	X7	Y7	Z7	X8	Y8	Z8	X9	Y9	Z9	X10	Y10	Z10	X11	Y11	Z11	X12	Y12	Z12	X13	Y13	Z13	X14	Y14	Z14	X15	Y15	Z15	X16	Y16	Z16	X17	Y17	Z17	X18	Y18	Z18	X19	Y19	Z19	X20	Y20	Z20	X21	Y21	Z21	X22	Y22	Z22	X23	Y23	Z23	X24	Y24	Z24	X25	Y25	Z25	X26	Y26	Z26	X27	Y27	Z27	X28	Y28	Z28	X29	Y29	Z29	X30	Y30	Z30	X31	Y31	Z31	X32	Y32	Z32	X33	Y33	Z33	X34	Y34	Z34	X35	Y35	Z35	X36	Y36	Z36	X37	Y37	Z37	X38	Y38	Z38	X39	Y39	Z39	X40	Y40	Z40	X41	Y41	Z41	X42	Y42	Z42	X43	Y43	Z43	X44	Y44	Z44	X45	Y45	Z45	X46	Y46	Z46	X47	Y47	Z47	X48	Y48	Z48	X49	Y49	Z49	X50	Y50	Z50	X51	Y51	Z51	X52	Y52	Z52	X53	Y53	Z53	X54	Y54	Z54	X55	Y55	Z55	X56	Y56	Z56	X57	Y57	Z57	X58	Y58	Z58	X59	Y59	Z59	X60	Y60	Z60	X61	Y61	Z61	X62	Y62	Z62	X63	Y63	Z63	X64	Y64	Z64	X65	Y65	Z65	X66	Y66	Z66	X67	Y67	Z67	X68	Y68	Z68	X69	Y69	Z69	X70	Y70	Z70	X71	Y71	Z71	X72	Y72	Z72	X73	Y73	Z73	X74	Y74	Z74	X75	Y75	Z75	X76	Y76	Z76	X77	Y77	Z77	X78	Y78	Z78	X79	Y79	Z79	X80	Y80	Z80	X81	Y81	Z81	X82	Y82	Z82	X83	Y83	Z83	X84	Y84	Z84	X85	Y85	Z85	X86	Y86	Z86	

38	0.37	948.7335815429686	1073.340087890625	-165.992233276367	948.3336181640624	1157.793823242188	-274.2646179199217	1049.792602539062	1097.785400390625	-289.9811706542967	926.23486328125	926.7901611328125	-268.6747741699217	1095.835571289062	984.3699340820314	-296.415588378906	1020.979553222656	785.5377807617189	-181.0645751953123	899.6751098632812	826.8003540039062	-229.3063659667967	897.8472290039064	827.5949096679688	-317.9327697753905	1015.533142089844	784.8826904296876	-375.613311767578	980.8240966796876	828.1355590820314	-393.3801879882811	979.6804809570312	835.1299438476564	-163.2840728759764	971.6829833984375	490.6605224609376	-220.5956268310545	970.4927368164062	532.1687622070314	-165.3045043945311	929.57080078125	441.2697753906251	-185.7923278808592	904.2599487304688	477.8137817382813	-125.1909103393553	895.413330078125	411.4974365234376	-180.1238708496092	938.8099365234375	408.3272399902344	-229.7016448974608	889.4386596679688	387.1252136230469	-185.307403564453	872.471923828125	382.0357666015626	-280.5805053710936	914.4639282226562	353.9606628417969	-224.7787628173826	899.9913940429688	281.7277832031251	-214.5672454833983	859.8150024414062	242.6250610351563	-177.7769165039061	870.3067626953125	192.9502563476563	-222.3516845703123	827.9130249023438	197.3011474609376	-150.3793792724608	803.3712768554688	77.68116760253911	-205.3421020507811	751.7907104492188	71.49459075927739	-245.8687896728514	912.88818359375	35.53839492797857	-234.2060241699217	887.5763549804688	17.2987728118897	-185.9502105712889	1047.853271484375	576.3126220703126	-420.5316467285155	1096.622436523438	544.3677368164064	-387.6004333496091	1079.662231445312	483.8011169433594	-410.6373901367186	1060.969360351562	520.4385986328126	-457.4140624999998	1090.038696289062	419.6114807128907	-408.7580261230466	1144.983154296875	438.8300170898438	-374.4605407714841	1084.3857421875	389.6743469238282	-410.3336181640623	1100.494995117188	384.6358337402344	-308.4320983886716	1136.828491210938	380.8926696777344	-371.6427612304685	1128.772338867188	273.7308959960938	-387.6148681640623	1082.72021484375	226.1116638183594	-414.0633544921873	1127.634399414062	177.7213439941407	-381.0956115722654	1062.879516601562	174.7508392333985	-439.4929809570311	1091.29345703125	74.19242095947273	-395.3166198730466	1048.920532226562	53.84245300292975	-355.895782470703	1206.79931640625	64.29875183105476	-375.9728393554685	1184.793701171875	42.59423828125007	-416.7558288574216	nan	nan	nan	nan	nan	nan	nan	nan	nan	nan	nan	nan	nan	nan	nan	nan	nan	nan	nan	nan	nan	nan	nan	nan	nan	nan	nan	nan	nan	nan	nan	nan	nan	nan	nan	nan	nan	nan	nan	nan	nan	nan	nan	nan	nan	nan	nan	nan	nan	nan	nan	nan	nan	nan	nan	nan	nan	nan	nan	nan	nan	nan	nan	nan	nan	nan	nan	nan	nan	nan	nan	nan	nan	nan	nan	nan	nan	nan	nan	nan	nan	nan	nan	nan	nan	nan	nan	nan	nan	nan	nan	nan	nan	nan	nan	nan	nan	nan	nan	nan	nan	nan	nan	nan	nan	nan	nan	nan	nan	nan	nan	nan	nan	nan	nan	nan	nan	nan	nan	nan	nan	nan	nan	
39	0.38	962.9624023437499	1071.908569335938	-167.3640747070311	963.3709106445311	1155.696655273438	-275.8233642578123	1064.914306640625	1095.538696289062	-290.6430358886717	940.0877685546875	924.8923339843751	-270.9024047851561	1110.469482421875	981.8614501953126	-296.2418518066404	1034.138427734375	784.0839233398439	-181.6907958984373	913.3984985351562	824.82958984375	-231.6171569824217	912.5684204101564	825.1295776367188	-320.3270568847655	1031.0478515625	782.3663330078126	-376.2778930664061	996.4520263671876	825.6277465820314	-394.7738647460936	992.3890991210938	833.5477294921876	-164.5825195312498	980.132080078125	489.5395507812501	-220.3346557617186	979.0889892578125	531.1886596679689	-165.239303588867	936.6832275390625	441.2538146972657	-185.6109771728514	911.8015747070312	478.6157836914063	-125.446220397949	901.5062866210938	412.0429382324219	-180.3588409423826	945.4427490234375	407.8055725097657	-229.3399963378905	894.96484375	387.8575439453126	-185.5173034667967	878.5818481445312	382.7688598632813	-280.9386596679686	919.7303466796875	353.9700317382813	-224.6834106445311	904.33984375	282.2833557128907	-214.4828186035155	863.0602416992188	243.795394897461	-177.8441619873045	873.1770629882812	193.8703765869141	-222.1999206542967	830.2107543945312	199.0478668212891	-150.6094818115233	804.2398681640625	79.58249664306645	-205.5623168945311	752.879150390625	74.19154357910161	-246.2697906494139	913.0945434570312	35.50798797607428	-234.1078948974608	887.338134765625	17.34791564941412	-186.027130126953	1061.859252929688	572.3309326171876	-419.9918212890623	1109.970092773438	540.2471923828126	-386.2880249023435	1092.82177734375	479.5963439941407	-409.1020507812498	1074.700073242188	515.8986816406251	-456.2599792480467	1104.269165039062	416.4707946777344	-406.5211486816404	1157.7470703125	436.7754821777344	-371.4436035156248	1099.891723632812	386.7256164550782	-408.2958679199216	1114.786743164062	381.6509704589844	-306.264221191406	1152.618041992188	380.0706481933594	-368.9771423339841	1153.106079101562	274.6969299316407	-386.3393554687498	1111.654296875	223.8518371582032	-413.8851013183591	1159.966186523438	178.905014038086	-380.8525695800779	1096.37890625	171.3059234619141	-439.9974060058591	1132.918090820312	72.57875061035163	-396.5827636718748	1091.927368164062	48.45664596557624	-358.1520080566404	1248.601928710938	71.94637298583991	-375.5960998535154	1229.112548828125	48.78302764892586	-417.0306701660154	nan	nan	nan	nan	nan	nan	nan	nan	nan	nan	nan	nan	nan	nan	nan	nan	nan	nan	nan	nan	nan	nan	nan	nan	nan	nan	nan	nan	nan	nan	nan	nan	nan	nan	nan	nan	nan	nan	nan	nan	nan	nan	nan	nan	nan	nan	nan	nan	nan	nan	nan	nan	nan	nan	nan	nan	nan	nan	nan	nan	nan	nan	nan	nan	nan	nan	nan	nan	nan	nan	nan	nan	nan	nan	nan	nan	nan	nan	nan	nan	nan	nan	nan	nan	nan	nan	nan	nan	nan	nan	nan	nan	nan	nan	nan	nan	nan	nan	nan	nan	nan	nan	nan	nan	nan	nan	nan	nan	nan	nan	nan	nan	nan	nan	nan	nan	nan	nan	nan	nan	nan	nan	nan	
40	0.39	977.2052612304686	1070.205444335938	-168.8810729980467	978.5014038085936	1153.36376953125	-277.478057861328	1080.14697265625	1093.073974609375	-291.4070739746092	954.0350341796875	922.7996826171876	-273.2154235839842	1125.192138671875	979.1479492187501	-296.1801757812498	1047.437255859375	782.5261840820314	-182.3485565185545	927.2507934570312	822.633544921875	-233.9770507812498	927.4097290039064	822.41552734375	-322.7594299316405	1046.686767578125	779.6627807617189	-376.952423095703	1012.169006347656	822.9048461914064	-396.2019958496092	1005.188415527344	831.8284301757814	-165.9430084228514	988.9876708984375	488.3895874023438	-220.1300659179686	988.0372314453125	530.1648559570314	-165.2278747558592	944.369384765625	441.2294311523438	-185.5060272216795	919.8546752929688	479.3573303222657	-125.7793884277342	908.1077880859375	412.5303955078126	-180.6537780761717	952.5751342773438	407.2240600585938	-229.0539550781248	901.011962890625	388.5412902832032	-185.8007659912108	885.2107543945312	383.4375305175782	-281.3926391601561	925.480224609375	353.9078979492188	-224.6689453124998	909.0197143554688	282.7495422363282	-214.4499359130858	866.6494750976562	244.9699401855469	-177.9421997070311	876.2920532226562	194.7701416015626	-222.0595550537108	832.7816772460938	200.8886871337891	-150.8541107177733	805.213134765625	81.59880065917973	-205.7591705322264	754.088134765625	77.07946014404301	-246.643112182617	913.3181762695312	35.49051666259771	-234.0045013427733	887.111328125	17.40387916564947	-186.1052398681639	1076.024291992188	568.0830688476564	-419.297882080078	1123.401733398438	535.8131103515626	-384.7623596191404	1106.046630859375	475.0929870605469	-407.4051818847654	1088.60595703125	511.0820007324219	-454.953186035156	1118.443725585938	413.0521850585938	-404.1246337890623	1170.339111328125	434.3218688964844	-368.074035644531	1115.222900390625	383.6268005371094	-406.1127929687498	1128.576416015625	378.2463378906251	-303.9502868652341	1168.121337890625	378.8970642089844	-366.125305175781	1176.553344726562	275.8281555175782	-384.9054870605466	1139.757446289062	222.2549133300782	-413.5588073730466	1191.001220703125	180.7743072509766	-380.4158630371091	1129.005249023438	168.9805603027344	-440.3817749023435	1173.057495117188	72.58302307128913	-397.659240722656	1133.599853515625	44.91986465454109	-360.1767883300779	1288.425170898438	80.78582763671884	-375.1039733886716	1271.382934570312	56.47212982177742	-417.1876831054685	nan	nan	nan	nan	nan	nan	nan	nan	nan	nan	nan	nan	nan	nan	nan	nan	nan	nan	nan	nan	nan	nan	nan	nan	nan	nan	nan	nan	nan	nan	nan	nan	nan	nan	nan	nan	nan	nan	nan	nan	nan	nan	nan	nan	nan	nan	nan	nan	nan	nan	nan	nan	nan	nan	nan	nan	nan	nan	nan	nan	nan	nan	nan	nan	nan	nan	nan	nan	nan	nan	nan	nan	nan	nan	nan	nan	nan	nan	nan	nan	nan	nan	nan	nan	nan	nan	nan	nan	nan	nan	nan	nan	nan	nan	nan	nan	nan	nan	nan	nan	nan	nan	nan	nan	nan	nan	nan	nan	nan	nan	nan	nan	nan	nan	nan	nan	nan	nan	nan	nan	nan	nan	nan	
41	0.4	991.4825439453124	1068.268310546875	-170.5363159179686	993.7218017578124	1150.83740234375	-279.2137756347655	1095.484985351562	1090.440063476562	-292.2795410156248	968.1069946289062	920.5412597656251	-275.5856018066405	1140.016235351562	976.2867431640626	-296.2520751953123	1060.923706054688	780.8818359375001	-183.0398254394529	941.26513671875	820.2385253906251	-236.3605804443358	942.3880004882814	819.4957885742189	-325.2004394531248	1062.455322265625	776.8300170898439	-377.640167236328	1027.978393554688	820.0159912109376	-397.6525878906248	1018.134582519531	829.9907836914064	-167.356002807617	998.3240966796875	487.1907653808594	-219.9519653320311	997.4078979492188	529.0987548828126	-165.2520599365233	952.6926879882812	441.1640014648438	-185.4642944335936	928.4459228515625	480.0171813964844	-126.1880493164061	915.3150634765625	412.9260864257813	-181.0023498535155	960.2973022460938	406.5544738769532	-228.8428955078123	907.6925048828125	389.1344299316407	-186.1554565429686	892.4894409179688	383.9978332519532	-281.9442138671873	931.8213500976562	353.7430419921876	-224.7312164306639	914.0983276367188	283.0781860351563	-214.4698944091795	870.6566162109375	246.123031616211	-178.0720214843748	879.7010498046875	195.6271514892579	-221.9341735839842	835.7177734375	202.8033142089844	-151.1077728271483	806.3133544921875	83.74097442626957	-205.9166107177733	755.4428100585938	80.17002868652348	-246.9657287597655	913.5767822265625	35.48660278320318	-233.903106689453	886.9241943359375	17.47318458557134	-186.1769409179686	1090.488037109375	563.7403564453126	-418.4973449707029	1137.122924804688	531.2886962890626	-383.1211853027341	1119.578002929688	470.5088806152344	-405.6275634765623	1102.857177734375	506.2110900878907	-453.5623474121091	1132.778198242188	409.5100097656251	-401.693908691406	1183.115234375	431.6763610839844	-364.6232299804685	1130.562255859375	380.4831542968751	-403.8806457519529	1142.283569335938	374.6679382324219	-301.6172180175779	1183.565673828125	377.5004577636719	-363.2806701660154	1199.105834960938	276.9791870117188	-383.3816833496091	1166.754150390625	221.1673736572266	-413.0138549804685	1220.478881835938	183.046615600586	-379.7538757324216	1160.260375976562	167.5652160644532	-440.4894714355466	1211.0498046875	73.82533264160163	-398.3315429687498	1173.240478515625	42.98832321166999	-361.6430664062498	1325.7861328125	90.1858673095704	-374.5023803710935	1310.97265625	64.96231079101571	-417.1621398925779	nan	nan	nan	nan	nan	nan	nan	nan	nan	nan	nan	nan	nan	nan	nan	nan	nan	nan	nan	nan	nan	nan	nan	nan	nan	nan	nan	nan	nan	nan	nan	nan	nan	nan	nan	nan	nan	nan	nan	nan	nan	nan	nan	nan	nan	nan	nan	nan	nan	nan	nan	nan	nan	nan	nan	nan	nan	nan	nan	nan	nan	nan	nan	nan	nan	nan	nan	nan	nan	nan	nan	nan	nan	nan	nan	nan	nan	nan	nan	nan	nan	nan	nan	nan	nan	nan	nan	nan	nan	nan	nan	nan	nan	nan	nan	nan	nan	nan	nan	nan	nan	nan	nan	nan	nan	nan	nan	nan	nan	nan	nan	nan	nan	nan	nan	nan	nan	nan	nan	nan	nan	nan	nan	
